<svg version="1.1" xmlns="http://www.w3.org/2000/svg" viewBox="0 0 124 124" style="enable-background:new 0 0 124 124;">
<style type="text/css">
	.st0{fill:none;stroke:#338BD5;stroke-width:3;stroke-miterlimit:10;}
	.bg{fill:rgba(0, 255, 255, 0.75)}
	.color{fill:rgba(45, 45, 45, 0.85)}
	.colorSub{fill:rgba(35, 35, 35, 0.85)}
	@keyframes App-logo-spin {
  from {
    transform: rotate(0deg);
  }
  to {
    transform: rotate(360deg);
  }
}
</style>
<g id="Layer_3">
	<polygon id="XMLID_173_" class="bg" points="33.6,112 4.8,62 33.6,12 91.4,12 120.2,62 91.4,112 	"/>
</g>
<g id="initials">
	<g id="XMLID_132_" >
		<polygon class="color" id="XMLID_133_" points="120.2,62 112.5,48.6 107.8,40.5 107.8,83.5 112.5,75.4 		"/>
		<polygon class="color" id="XMLID_9_" points="99.2,67.6 76.3,67.6 76.3,92 68.3,92 68.3,35.6 76.3,35.6 76.3,59.2 99.2,59.2 99.2,35.6 105,35.6 
			91.4,12 33.6,12 4.8,62 18.6,85.9 36.6,35.6 43.2,35.6 63.5,92 55.4,92 50.9,78.8 29,78.8 24.5,92 22.1,92 33.6,112 91.4,112 
			102.9,92 99.2,92 		"/>
		<polygon class="colorSub" id="XMLID_200_" points="38.6,51.4 32.5,69.2 44.7,69.2 		"/>
		<polygon class="colorSub"  id="XMLID_201_" points="12.9,92 22.1,92 16.5,82.3 		"/>
		<polygon class="colorSub" id="XMLID_202_" points="107.8,92 107.8,83.5 102.9,92 		"/>
		<polygon class="colorSub" id="XMLID_203_" points="107.8,35.6 105,35.6 107.8,40.5 		"/>
	</g>
</g>
<g id="Layer_8">
	<polygon id="XMLID_189_" class="st0" points="112.5,90.9 62.5,119.7 12.5,90.9 12.5,33.1 62.5,4.3 112.5,33.1 	"/>
</g>
</svg>
