<svg version="1.1" class="hexagon_formation" viewBox="0 0 503.7 522.6" >
<g>
	<polygon class="hex" points="201.7,434.5 151.7,347.9 201.7,261.3 301.7,261.3 351.7,347.9 301.7,434.5 	"/>
	<polygon class="hex" points="51.7,521.1 1.7,434.5 51.7,347.9 151.7,347.9 201.7,434.5 151.7,521.1 	"/>
	<polygon class="hex" points="201.7,261.3 151.7,174.7 201.7,88.1 301.7,88.1 351.7,174.7 301.7,261.3 	"/>
	<polygon class="hex" points="351.9,347.9 301.9,261.3 351.9,174.7 451.9,174.7 501.9,261.3 451.9,347.9 	"/>
	<polygon class="hex" points="51.7,347.9 1.7,261.3 51.7,174.7 151.7,174.7 201.7,261.3 151.7,347.9 	"/>
	<polygon class="hex" points="51.7,174.7 1.7,88.1 51.7,1.5 151.7,1.5 201.7,88.1 151.7,174.7 	"/>
</g>
</svg>
