<?xml version="1.0" encoding="utf-8"?>
<svg version="1.1" id="Capa_1" xmlns="http://www.w3.org/2000/svg" xmlns:xlink="http://www.w3.org/1999/xlink" x="0px" y="0px"
	 viewBox="-68 69.8 112.2 112.2" style="enable-background:new -68 69.8 112.2 112.2;" xml:space="preserve">
<style type="text/css">
	.st0{fill-rule:evenodd;clip-rule:evenodd;fill:#3899ed;}
	.st0:hover{fill:#4cdfe3;}
</style>
<g>
	<path class="st0" d="M-5.9,119.1v-0.1C-5.9,119-6,119-5.9,119.1L-5.9,119.1z"/>
	<path class="st0" d="M-11.9,69.8c-31,0-56.1,25.1-56.1,56.1S-42.9,182-11.9,182c31,0,56.1-25.1,56.1-56.1S19.1,69.8-11.9,69.8z M-26.7,153.5
		h-13.4v-40.3h13.4V153.5z M-33.4,107.7L-33.4,107.7c-4.6,0-7.5-3.1-7.5-7c0-4,3-7,7.6-7c4.6,0,7.4,3,7.5,7
		C-25.8,104.6-28.8,107.7-33.4,107.7z M21.6,153.5H8.2V132c0-5.4-1.9-9.1-6.8-9.1c-3.7,0-5.9,2.5-6.9,4.9c-0.4,0.9-0.4,2.1-0.4,3.3
		v22.5h-13.4c0,0,0.2-36.5,0-40.3h13.4v5.7c1.8-2.7,5-6.7,12.1-6.7c8.8,0,15.4,5.8,15.4,18.1V153.5z"/>
</g>
</svg>
