<?xml version="1.0" encoding="utf-8"?>
<svg version="1.1" id="Layer_1" xmlns="http://www.w3.org/2000/svg" xmlns:xlink="http://www.w3.org/1999/xlink" x="0px" y="0px"
	 viewBox="0 0 384 384" style="enable-background:new 0 0 384 384;" xml:space="preserve">
<style type="text/css">
    .st0{fill-rule:evenodd;clip-rule:evenodd;fill:#999999;}
</style>
<g>
	<path class="st0" d="M192.6,320.8c-9.7,0-19.5,0-29.2,0c-5.8,0-8.4-2-9.1-7.8c-0.7-6.8-0.4-13.7-1.2-20.5c-2.6-24.6-11.8-46.6-27.3-65.9
		c-10.4-12.9-17.9-26.9-20.9-43.3c-8.5-46.6,21.9-92.7,68.1-103.2c50.5-11.5,100.4,22.3,108.1,73.2c3.7,24.7-1.7,47.5-17,67.5
		c-12.4,16.2-22.7,33.5-28.1,53.3c-3.1,11.4-4.8,23-4.3,34.8c0.3,8.9-2.5,11.8-11.3,11.8C211.1,320.8,201.8,320.8,192.6,320.8z
		 M169.6,304.9c15.6,0,30.9,0,45.6,0c1.2-8.7,1.8-17,3.4-25.2c4.9-25.3,16.6-47.4,32.5-67.5c10.1-12.8,15-27.5,15.3-43.7
		c1-48.2-44.8-84.8-91.2-72.8c-52.7,13.5-73.5,75.6-39.6,118.1c8.4,10.5,15.7,21.6,21.2,33.9C164.9,265.7,169.2,284.7,169.6,304.9z"
		/>
	<path class="st0" d="M192.7,347.1c-10,0-20,0-30,0c-4.7,0-7.6-2-8.7-5.7c-1.5-5.1,2.3-9.8,8.1-9.9c11.7-0.1,23.5,0,35.2,0c8.2,0,16.5,0,24.7,0
		c5.9,0,9.5,2.9,9.6,7.7c0.1,4.9-3.6,7.9-9.7,7.9C212.2,347.1,202.5,347.1,192.7,347.1z"/>
	<path class="st0" d="M192.7,360.8c6.1,0,12.2,0,18.4,0c5.3,0,8.7,3,8.8,7.7c0.1,4.8-3.3,7.9-8.9,7.9c-12.1,0-24.2,0-36.3,0c-5.5,0-9-3.1-9-7.8
		c0-4.7,3.5-7.7,9.1-7.8C180.7,360.8,186.7,360.8,192.7,360.8z"/>
</g>
</svg>
